<?xml version="1.0" encoding="UTF-8"?><svg id="Layer_2" xmlns="http://www.w3.org/2000/svg" viewBox="0 0 563.15 150"><g id="Layer_1-2"><path d="m103.67,112.38c-.19,6.78-1.19,13.39-3.98,19.61-4.42,9.82-11.72,16.17-22.58,17.6-10.26,1.36-20.03-.67-29.14-5.54-5.82-3.12-11.11-6.98-15.55-11.96-6.26-7.02-10.26-15.14-12.15-24.34-1.74-8.46-2.07-16.99-.81-25.52,2.47-16.68,8.15-32.18,17.71-46.14,7.85-11.48,17.42-21.32,28.95-29.16,4.88-3.33,10.1-5.88,16.02-6.74,6.82-.99,12.38,1.87,15.63,7.97,2.56,4.82,3.57,10.04,3.66,15.38.28,16.25-2.72,31.89-9.13,46.86-.13.3-.29.6-.41.85-2.65-.56-5.22-1.24-7.83-1.62-8.01-1.16-15.69.32-23.12,3.3-7.83,3.14-14.71,7.76-20.37,14.02-5.01,5.53-9.14,11.7-10.53,19.19-.5,2.75-.4,5.67-.19,8.48.24,3.21,1.59,4.02,4.68,3.31,7.75-1.79,15.12-4.64,22.36-7.89,15.02-6.76,27.12-16.92,36.21-30.66.21-.32.44-.64.69-1.02,3.41,3.42,5.58,7.52,7.11,11.99,2.45,7.15,2.96,14.54,2.75,22.03Z" style="fill:#fb581c; stroke-width:0px;"/><path d="m90.03,75.55c-2.25,4.17-4.94,7.87-8.06,11.24-7.11,7.67-15.32,14-24.76,18.41-6.43,3-13.28,5.11-20,7.47-2.56.89-3.69-.34-3.27-3.26.68-4.64,2.36-8.93,4.74-12.94,4.03-6.81,9.77-11.84,16.53-15.83,7.02-4.14,14.53-6.63,22.69-7.06,4.13-.22,8.18.22,12.14,1.98Z" style="fill:#fb581c; stroke-width:0px;"/><path d="m21.24,138.46c.27,6.13-4.24,10.85-10.54,11.06-5.9.19-10.48-4.19-10.69-10.23-.2-5.97,4.35-10.63,10.61-10.87,5.62-.21,10.37,4.27,10.62,10.04Z" style="fill:#091e68; stroke-width:0px;"/><path d="m135.44,38.27h33.91c5.22,0,9.78.76,13.7,2.39,3.91,1.63,6.96,3.91,9.24,6.96,2.17,3.04,3.26,6.74,3.26,11.2,0,3.59-.87,6.74-2.72,9.35-1.85,2.72-4.46,4.78-8.04,6.2,4.46,1.41,7.83,3.7,10.11,6.85,2.28,3.15,3.37,6.74,3.37,10.87,0,4.46-1.2,8.37-3.48,11.63-2.39,3.26-5.65,5.76-9.78,7.5-4.24,1.85-9.02,2.72-14.46,2.72h-35.11V38.27Zm17.39,14.46v15.33h14.56c3.59,0,6.3-.65,8.15-1.96,1.85-1.2,2.83-3.15,2.83-5.76,0-5.11-3.7-7.61-10.98-7.61h-14.56Zm0,29.57v17.17h16.41c7.72,0,11.52-2.83,11.52-8.59s-3.8-8.59-11.52-8.59h-16.41Z" style="fill:#091e68; stroke-width:0px;"/><path d="m216.61,111.75c-4.35-2.5-7.72-6.09-10.22-10.65-2.5-4.46-3.7-9.67-3.7-15.54s1.2-11.09,3.7-15.54c2.5-4.46,5.87-8.04,10.22-10.54,4.35-2.5,9.35-3.8,15-3.8s10.65,1.3,15.11,3.8c4.35,2.5,7.72,6.09,10.22,10.54,2.5,4.46,3.7,9.67,3.7,15.54s-1.2,11.09-3.7,15.54c-2.5,4.57-5.87,8.15-10.22,10.65-4.46,2.5-9.46,3.8-15.11,3.8s-10.65-1.3-15-3.8Zm23.91-14.89c2.28-2.72,3.37-6.52,3.37-11.3s-1.09-8.59-3.37-11.31c-2.28-2.72-5.33-4.13-8.91-4.13s-6.52,1.41-8.8,4.13c-2.28,2.72-3.37,6.52-3.37,11.31s1.09,8.59,3.37,11.3c2.28,2.83,5.22,4.24,8.8,4.24s6.63-1.41,8.91-4.24Z" style="fill:#091e68; stroke-width:0px;"/><path d="m265.45,57.29h15.76v5.87c1.74-2.39,3.91-4.24,6.41-5.54,2.5-1.3,5.33-1.96,8.48-1.96s6.09.76,8.59,2.28c2.5,1.52,4.46,3.69,6.09,6.41,2.07-2.72,4.67-4.89,7.72-6.41,2.94-1.52,6.2-2.28,9.57-2.28,5.76,0,10.33,2.07,13.7,6.09,3.37,4.02,5.11,9.57,5.11,16.63v35.54h-16.52v-33.59c0-3.15-.65-5.54-1.96-7.39-1.41-1.74-3.26-2.61-5.76-2.61s-4.57.87-5.98,2.61c-1.52,1.85-2.28,4.24-2.28,7.39v33.59h-16.52v-33.59c0-3.15-.65-5.54-1.96-7.39-1.41-1.74-3.37-2.61-5.87-2.61s-4.46.87-5.87,2.61c-1.41,1.85-2.17,4.24-2.17,7.39v33.59h-16.52v-56.63Z" style="fill:#091e68; stroke-width:0px;"/><path d="m352.29,35.12h16.41v28.04c1.85-2.39,4.13-4.24,6.85-5.54,2.61-1.3,5.54-1.96,8.91-1.96,4.89,0,9.13,1.3,12.94,3.8,3.7,2.5,6.63,6.09,8.8,10.54,2.07,4.46,3.15,9.67,3.15,15.54s-1.09,11.09-3.15,15.54c-2.17,4.57-5.11,8.15-8.8,10.65-3.81,2.5-8.04,3.8-12.94,3.8-3.59,0-6.74-.65-9.46-2.17-2.72-1.41-5.11-3.37-6.96-5.98v6.52h-15.76V35.12Zm36.96,61.85c2.28-2.72,3.37-6.52,3.37-11.3s-1.09-8.7-3.37-11.41c-2.28-2.72-5.33-4.13-8.91-4.13s-6.63,1.41-8.91,4.13c-2.28,2.83-3.48,6.63-3.48,11.41s1.2,8.48,3.48,11.2c2.28,2.83,5.33,4.24,8.91,4.24s6.63-1.41,8.91-4.13Z" style="fill:#091e68; stroke-width:0px;"/><path d="m429.42,113.92l-22.17-56.63h18.8l12.39,37.17,12.28-37.17h17.61l-30.54,78.91h-17.61l9.24-22.28Z" style="fill:#091e68; stroke-width:0px;"/><path d="m492,84.03l-18.37-26.74h19.67l9.78,15.43,9.35-15.43h18.7l-18.26,27.5,20.22,29.13h-19.67l-11.74-17.83-11.3,17.83h-18.59l20.22-29.89Z" style="fill:#091e68; stroke-width:0px;"/><path d="m545.69,46.98v-9.37h-3.79v-1.06h8.77v1.06h-3.79v9.37h-1.18Z" style="fill:#091e68; stroke-width:0px;"/><path d="m552.69,46.98v-10.44h1.28l3.97,6.37,3.95-6.37h1.26v10.44h-1.17v-8.59l-4.05,6.55-4.06-6.52v8.56h-1.17Z" style="fill:#091e68; stroke-width:0px;"/></g></svg>